<svg width="13" height="16" viewBox="0 0 13 16" fill="none" xmlns="http://www.w3.org/2000/svg">
<path fill-rule="evenodd" clip-rule="evenodd" d="M1.08442 0.922548C0.808641 1.0082 0.563465 1.2255 0.447013 1.48751C0.37145 1.65749 0.357717 1.9995 0.419206 2.17887C0.441452 2.24376 1.4229 3.62986 2.60016 5.25905C3.77744 6.88828 4.74066 8.23366 4.74066 8.2488C4.74066 8.26394 3.77744 9.60932 2.60016 11.2385C1.4229 12.8677 0.441452 14.2538 0.419206 14.3187C0.349111 14.5232 0.368996 14.8415 0.46432 15.04C0.560793 15.2409 0.768126 15.4425 0.975675 15.5373L1.12096 15.6037H6.2631H11.4052L11.569 15.5306C11.7819 15.4354 12.0181 15.1818 12.094 14.9668C12.1463 14.8185 12.1509 14.6798 12.1509 13.2698V11.7343L12.0676 11.5587C11.9585 11.3286 11.7451 11.1257 11.5274 11.0452C11.3775 10.9898 11.2858 10.9819 10.7882 10.9819C10.0799 10.9819 9.99412 11.0053 9.72499 11.2712C9.45468 11.5385 9.43228 11.6201 9.43228 12.3386V12.9166H7.102C5.82035 12.9166 4.77173 12.9093 4.77173 12.9003C4.77173 12.8913 5.43175 11.9689 6.23843 10.8504C7.04511 9.732 7.74072 8.75474 7.78418 8.67873C7.8535 8.55755 7.86323 8.50464 7.86323 8.2488C7.86323 7.99296 7.8535 7.94005 7.78418 7.81887C7.74072 7.74286 7.04511 6.7656 6.23843 5.64716C5.43175 4.52872 4.77173 3.6063 4.77173 3.59731C4.77173 3.58831 5.82035 3.58097 7.102 3.58097H9.43228V4.15898C9.43228 4.87749 9.45468 4.95915 9.72499 5.22635C9.99412 5.49232 10.0799 5.51566 10.7882 5.51566C11.2858 5.51566 11.3775 5.5078 11.5274 5.45237C11.7451 5.37188 11.9585 5.16901 12.0676 4.93894L12.1509 4.76328V3.22781C12.1509 1.81782 12.1463 1.67914 12.094 1.53075C12.0181 1.31584 11.7819 1.06215 11.569 0.967046L11.4052 0.893897L6.30971 0.888093C2.17919 0.883363 1.18959 0.889904 1.08442 0.922548Z" fill="white"/>
</svg>
